<?xml version="1.0" standalone="no"?>
<!DOCTYPE svg PUBLIC "-//W3C//DTD SVG 20010904//EN"
 "http://www.w3.org/TR/2001/REC-SVG-20010904/DTD/svg10.dtd">
<svg version="1.0" xmlns="http://www.w3.org/2000/svg"
 width="583.000000pt" height="598.000000pt" viewBox="0 0 583.000000 598.000000"
 preserveAspectRatio="xMidYMid meet">
<metadata>
Created by potrace 1.13, written by Peter Selinger 2001-2015
</metadata>
<g transform="translate(0.000000,598.000000) scale(0.100000,-0.100000)"
fill="#000000" stroke="none">
<path d="M2715 5894 c-191 -19 -259 -29 -385 -54 -245 -50 -452 -120 -680
-231 -598 -290 -1062 -752 -1354 -1349 -141 -287 -227 -571 -273 -901 -24
-173 -24 -575 0 -748 46 -330 132 -614 273 -901 434 -886 1256 -1479 2245
-1617 173 -24 575 -24 748 0 693 97 1321 424 1773 922 410 452 660 987 745
1596 24 173 24 575 0 748 -46 330 -132 614 -273 901 -432 882 -1261 1481
-2234 1615 -109 15 -500 28 -585 19z m619 -243 c976 -159 1772 -838 2086
-1779 97 -293 125 -482 125 -842 -1 -238 -4 -292 -23 -405 -67 -388 -202 -732
-411 -1047 -261 -391 -638 -720 -1055 -919 -102 -49 -103 -50 -109 -88 -13
-102 -90 -206 -189 -258 -48 -25 -63 -28 -158 -28 -97 0 -110 2 -163 30 -120
60 -190 176 -190 315 0 108 30 179 104 251 74 73 139 99 249 99 87 0 138 -15
207 -62 23 -15 47 -28 54 -28 7 0 64 27 128 61 657 344 1113 964 1241 1689 28
156 38 494 21 651 -52 453 -232 884 -516 1234 -206 254 -484 476 -785 626
-329 164 -661 241 -1040 241 -191 0 -282 -9 -456 -42 -825 -160 -1516 -772
-1779 -1575 -81 -247 -116 -465 -116 -735 0 -553 184 -1063 543 -1508 99 -123
303 -320 433 -417 382 -287 737 -404 974 -321 103 37 202 147 239 265 25 83
24 497 -2 590 -35 127 -79 192 -175 256 -86 57 -163 139 -195 206 -46 97 -519
1323 -532 1379 -18 74 -17 213 1 285 24 90 62 153 145 235 59 59 96 86 170
123 92 46 261 97 322 97 51 0 107 -37 129 -83 23 -53 23 -81 0 -134 -23 -50
-55 -68 -153 -87 -247 -48 -367 -176 -330 -352 12 -59 472 -1246 510 -1317 33
-62 99 -122 169 -154 46 -21 66 -25 117 -21 99 8 198 72 251 162 40 69 513
1298 520 1352 21 154 -89 275 -290 320 -129 29 -149 36 -177 66 -53 56 -49
146 7 203 46 45 88 52 189 30 296 -63 509 -241 555 -463 15 -72 14 -195 -3
-262 -17 -70 -520 -1361 -551 -1415 -29 -50 -115 -133 -187 -179 -70 -44 -101
-81 -127 -151 -35 -94 -52 -220 -60 -465 -8 -216 -10 -241 -35 -313 -80 -236
-225 -393 -436 -473 -69 -26 -86 -28 -220 -28 -121 0 -159 3 -230 22 -372 101
-791 365 -1109 698 -401 420 -636 892 -726 1459 -22 137 -31 509 -16 661 120
1202 1036 2164 2236 2350 233 36 580 34 819 -5z"/>
<path d="M3532 845 c-91 -40 -162 -134 -162 -215 0 -108 124 -231 232 -230 73
1 179 83 214 165 29 71 12 135 -58 211 -70 77 -151 102 -226 69z"/>
</g>
</svg>
